<?xml version="1.0" encoding="iso-8859-1"?>
<!-- Generator: Adobe Illustrator 19.0.0, SVG Export Plug-In . SVG Version: 6.00 Build 0)  -->
<svg version="1.1" id="Layer_1" xmlns="http://www.w3.org/2000/svg" xmlns:xlink="http://www.w3.org/1999/xlink" x="0px" y="0px"
	 viewBox="0 0 512 512" style="enable-background:new 0 0 512 512;" xml:space="preserve">
<path style="fill:#B54E25;" d="M505.409,38.419c8.788-8.788,8.788-23.039,0-31.827c-8.79-8.79-23.039-8.79-31.827,0
	S230.468,249.706,230.468,249.706l31.827,31.827C262.295,281.533,496.62,47.209,505.409,38.419z"/>
<path style="fill:#FAB352;" d="M246.382,313.361l63.656-31.827l-79.569-79.569l-31.827,63.656L0,352.863
	c0,28.395,7.446,55.047,20.478,78.127l50.852,9.682l9.682,50.852C104.091,504.555,130.744,512,159.138,512L246.382,313.361z"/>
<path style="fill:#FCD197;" d="M81.011,491.523l149.456-194.076l-15.914-15.914L20.478,430.99
	C34.751,456.268,55.733,477.25,81.011,491.523z"/>
<path style="fill:#C16C49;" d="M254.337,329.756c-2.159,0-4.32-0.824-5.968-2.472l-63.655-63.655c-3.296-3.296-3.296-8.64,0-11.935
	c3.297-3.296,8.64-3.296,11.936,0l63.655,63.655c3.296,3.296,3.296,8.64,0,11.935C258.657,328.933,256.497,329.756,254.337,329.756z
	"/>
<g>
</g>
<g>
</g>
<g>
</g>
<g>
</g>
<g>
</g>
<g>
</g>
<g>
</g>
<g>
</g>
<g>
</g>
<g>
</g>
<g>
</g>
<g>
</g>
<g>
</g>
<g>
</g>
<g>
</g>
</svg>
