<?xml version="1.0" encoding="iso-8859-1"?>
<!-- Generator: Adobe Illustrator 19.0.0, SVG Export Plug-In . SVG Version: 6.00 Build 0)  -->
<svg version="1.1" id="Layer_1" xmlns="http://www.w3.org/2000/svg" xmlns:xlink="http://www.w3.org/1999/xlink" x="0px" y="0px"
	 viewBox="0 0 512 512" style="enable-background:new 0 0 512 512;" xml:space="preserve">
<g>
	<path style="fill:#EDEDED;" d="M111.553,271.732c-4.739,0-8.581-3.841-8.581-8.581v-34.324c0-4.74,3.842-8.581,8.581-8.581
		s8.581,3.841,8.581,8.581v34.324C120.134,267.891,116.292,271.732,111.553,271.732z"/>
	<path style="fill:#EDEDED;" d="M157.318,271.732c-4.739,0-8.581-3.841-8.581-8.581v-34.324c0-4.74,3.842-8.581,8.581-8.581
		s8.581,3.841,8.581,8.581v34.324C165.899,267.891,162.057,271.732,157.318,271.732z"/>
</g>
<path style="fill:#DBDBDB;" d="M65.788,111.553H8.581c-4.739,0-8.581-3.841-8.581-8.581c0-4.74,3.842-8.581,8.581-8.581h57.207
	c4.739,0,8.581,3.841,8.581,8.581C74.369,107.712,70.527,111.553,65.788,111.553z"/>
<path style="fill:#EDEDED;" d="M168.76,45.765c-56.87,0-102.972,25.613-102.972,57.207s46.102,57.207,102.972,57.207l11.441-11.441
	V57.207L168.76,45.765z"/>
<path style="fill:#88888F;" d="M168.76,45.765c-21.169,0-40.844,3.551-57.207,9.636v95.142c16.362,6.084,36.038,9.636,57.207,9.636
	l11.441-11.441V57.207L168.76,45.765z"/>
<path style="fill:#EFC27B;" d="M443.352,45.765H168.76v114.413l57.207,45.765h171.62v80.089c0,18.956-15.368,34.324-34.324,34.324
	c-18.956,0-34.324,15.368-34.324,34.324c0,18.956,15.368,34.324,34.324,34.324H512V114.413C512,76.5,481.265,45.765,443.352,45.765z
	"/>
<polygon style="fill:#797781;" points="409.028,274.592 351.821,274.592 363.263,194.503 409.028,194.503 "/>
<path style="fill:#ECB45C;" d="M443.352,45.765H271.731v160.179h125.856v80.089c0,18.956-15.368,34.324-34.324,34.324
	c-18.956,0-34.324,15.368-34.324,34.324c0,18.956,15.368,34.324,34.324,34.324H512V114.413C512,76.5,481.265,45.765,443.352,45.765z
	"/>
<g>
	<path style="fill:#88888F;" d="M306.056,168.76h-57.207c-4.739,0-8.581-3.841-8.581-8.581c0-4.74,3.842-8.581,8.581-8.581h57.207
		c4.739,0,8.581,3.841,8.581,8.581C314.637,164.919,310.795,168.76,306.056,168.76z"/>
	<path style="fill:#88888F;" d="M306.056,134.436h-57.207c-4.739,0-8.581-3.841-8.581-8.581c0-4.74,3.842-8.581,8.581-8.581h57.207
		c4.739,0,8.581,3.841,8.581,8.581C314.637,130.595,310.795,134.436,306.056,134.436z"/>
	<path style="fill:#88888F;" d="M306.056,100.112h-57.207c-4.739,0-8.581-3.841-8.581-8.581s3.842-8.581,8.581-8.581h57.207
		c4.739,0,8.581,3.841,8.581,8.581S310.795,100.112,306.056,100.112z"/>
	<path style="fill:#88888F;" d="M454.793,380.425c-4.739,0-8.581,3.841-8.581,8.581c0,33.12-26.945,60.067-60.067,60.067H203.084
		c-33.122,0-60.067-26.947-60.067-60.067v-68.648c0-0.362-0.03-0.715-0.073-1.065c14.842-3.784,25.816-17.239,25.816-33.259v-22.883
		h-68.648v22.883c0,16.02,10.975,29.475,25.815,33.259c-0.042,0.35-0.072,0.704-0.072,1.065v68.648
		c0,42.585,34.644,77.229,77.229,77.229h183.061c42.585,0,77.229-34.644,77.229-77.229
		C463.374,384.265,459.532,380.425,454.793,380.425z"/>
</g>
<g>
	<path style="fill:#797781;" d="M454.793,380.425c-4.739,0-8.581,3.841-8.581,8.581c0,33.12-26.945,60.067-60.067,60.067H271.732
		v17.162h114.413c42.585,0,77.229-34.644,77.229-77.229C463.374,384.265,459.532,380.425,454.793,380.425z"/>
	<path style="fill:#797781;" d="M306.056,168.76c4.739,0,8.581-3.841,8.581-8.581c0-4.74-3.842-8.581-8.581-8.581h-34.324v17.162
		H306.056z"/>
	<path style="fill:#797781;" d="M314.637,125.855c0-4.74-3.842-8.581-8.581-8.581h-34.324v17.162h34.324
		C310.795,134.436,314.637,130.595,314.637,125.855z"/>
	<path style="fill:#797781;" d="M314.637,91.531c0-4.74-3.842-8.581-8.581-8.581h-34.324v17.162h34.324
		C310.795,100.112,314.637,96.271,314.637,91.531z"/>
	<path style="fill:#797781;" d="M500.559,148.737c-25.275,0-45.765,20.489-45.765,45.765v91.531
		c0,25.276,20.49,45.765,45.765,45.765H512V148.737H500.559z"/>
</g>
<g>
</g>
<g>
</g>
<g>
</g>
<g>
</g>
<g>
</g>
<g>
</g>
<g>
</g>
<g>
</g>
<g>
</g>
<g>
</g>
<g>
</g>
<g>
</g>
<g>
</g>
<g>
</g>
<g>
</g>
</svg>
